<?xml version="1.0" encoding="utf-8"?>
<!-- Generator: Adobe Illustrator 27.9.0, SVG Export Plug-In . SVG Version: 6.00 Build 0)  -->
<svg version="1.1" id="Layer_1" xmlns="http://www.w3.org/2000/svg" xmlns:xlink="http://www.w3.org/1999/xlink" x="0px" y="0px"
	 viewBox="0 0 128.2 35" style="enable-background:new 0 0 128.2 35;" xml:space="preserve">
<style type="text/css">
	.st0{fill:#FFFFFF;}
	.st1{fill:#0050B5;}
</style>
<path class="st0" d="M6.9,6.1L2.8,27.5c-0.2,1.2,0.1,2.4,0.8,3.3s1.9,1.4,3.1,1.4h51.2l5.6-29.4H10.8C8.9,2.8,7.2,4.2,6.9,6.1z"/>
<path class="st1" d="M126.5,2.6c-1.2-1.5-3.1-2.4-5-2.4H10.8C7.7,0.3,5,2.5,4.4,5.6L0.3,27c-0.4,1.9,0.1,3.9,1.4,5.4s3.1,2.4,5,2.4
	h110.7c3.1,0,5.8-2.2,6.4-5.3L127.9,8C128.2,6.1,127.8,4.1,126.5,2.6z M3.6,30.7c-0.8-0.9-1.1-2.1-0.8-3.3L6.9,6
	c0.4-1.9,2-3.2,3.9-3.2h52.7l-5.6,29.3H6.7C5.5,32.2,4.4,31.6,3.6,30.7z"/>
<path class="st1" d="M7.9,25.7c-0.1,0.1-0.1,0.3,0,0.4c0.1,0.1,0.3,0.2,0.5,0.2c0.3,0,0.6,0,0.9,0c0.4,0,0.7,0,0.9,0
	c0.2,0,0.4,0,0.6-0.1c0.1,0,0.3-0.1,0.4-0.2c0.1-0.1,0.2-0.2,0.2-0.3l2-3.4h6.5l0.5,3.5c0,0.1,0,0.2,0.1,0.3
	c0.1,0.1,0.1,0.1,0.2,0.2c0.2,0,0.3,0.1,0.5,0.1H22c0.5,0,0.9,0,1.1,0c0.2,0,0.4-0.1,0.6-0.2c0.1-0.1,0.2-0.3,0.2-0.4
	c0-0.3,0-0.5-0.1-0.8L21.6,9.4c0-0.1,0-0.3-0.1-0.4c-0.1-0.1-0.2-0.2-0.3-0.2c-0.2-0.1-0.5-0.1-0.7-0.1l-1.3,0h-1.1
	c-0.2,0-0.5,0-0.7,0.1c-0.1,0-0.3,0.1-0.4,0.2c-0.1,0.1-0.2,0.2-0.3,0.4L8.3,24.9C8.1,25.1,8,25.4,7.9,25.7z M18.6,12.1L18.6,12.1
	l1,7.4h-4.9L18.6,12.1z"/>
<path class="st1" d="M26.5,26.2c0.2,0.1,0.3,0.1,0.5,0.1c0.2,0,1.5,0,1.7,0c0.2,0,0.4,0,0.6-0.1c0.1,0,0.2-0.1,0.3-0.2
	c0.1-0.1,0.1-0.1,0.1-0.2l1.6-8.2l4.3,8.1c0,0.1,0.1,0.2,0.2,0.3c0.1,0.1,0.2,0.1,0.3,0.2c0.2,0,0.4,0.1,0.6,0.1c0.2,0,1.5,0,1.9,0
	c0.2,0,0.4-0.1,0.6-0.1c0.1,0,0.2-0.1,0.3-0.2c0.1-0.1,0.1-0.2,0.1-0.3c0-0.1,0-0.2-0.1-0.4c0-0.2-0.1-0.3-0.2-0.5L35.1,17l6.7-6.6
	c0.2-0.2,0.4-0.5,0.6-0.7c0.1-0.1,0.2-0.3,0.2-0.5c0-0.1,0-0.2-0.1-0.2c-0.1-0.1-0.2-0.1-0.3-0.2c-0.2-0.1-0.3-0.1-0.5-0.1
	c-0.2,0-1.6,0-1.7,0c-0.2,0-0.4,0.1-0.6,0.1c-0.1,0-0.3,0.1-0.4,0.2c-0.1,0.1-0.2,0.2-0.3,0.3l-6.9,7l1.4-7c0-0.1,0-0.2,0-0.2
	C33,9,33,8.9,32.9,8.9c-0.2-0.1-0.4-0.1-0.6-0.2c-0.3,0-0.6,0-0.9,0c-0.4,0-0.6,0-0.9,0c-0.2,0-0.4,0.1-0.6,0.1
	c-0.1,0-0.2,0.1-0.3,0.2c-0.1,0.1-0.1,0.2-0.1,0.2l-3.3,16.5c0,0.1,0,0.2,0,0.2C26.3,26.1,26.4,26.2,26.5,26.2z"/>
<path class="st1" d="M46.2,8.7c-0.3,0-0.6,0.1-0.9,0.3c-0.3,0.2-0.4,0.5-0.5,0.9l-3.1,15.3c-0.1,0.3,0,0.6,0.1,0.9
	c0.2,0.2,0.5,0.3,0.8,0.3h4.8c0.9,0,1.8-0.1,2.6-0.3c0.7-0.1,1.3-0.4,2-0.7c0.5-0.3,1-0.6,1.5-1.1c0.4-0.4,0.7-0.8,0.9-1.3
	c0.2-0.4,0.5-1,0.9-2.6c1.3-5-3.5-5.1-6.1-5.1h-2l0.7-3.7h1.9c0.2,0,4.7,0,6,0c0.2,0,0.4-0.2,0.5-0.4l0.4-1.8
	C57,9,56.7,8.7,56.4,8.7L46.2,8.7z M49.1,17.9c0.8,0,3.3-0.2,3,1.7c-0.1,0.9-0.1,2.6-2.5,3.7c-0.5,0.2-1.1,0.3-1.6,0.3h-2.5l1.2-5.7
	H49.1z"/>
<path class="st0" d="M111.1,8.7c-0.3,0-0.6,0.1-0.9,0.3c-0.3,0.2-0.4,0.5-0.5,0.9l-3.1,15.3c-0.1,0.3-0.1,0.6,0.1,0.9
	c0.2,0.2,0.5,0.3,0.8,0.3h2.3l3-14.5h1.9c0.2,0,4.7,0,6,0c0.2,0,0.4-0.2,0.5-0.4l0.4-2c0.1-0.3-0.2-0.6-0.5-0.6L111.1,8.7z"/>
<path class="st0" d="M65.1,26.1c0.2,0.1,0.3,0.1,0.5,0.1c0.3,0,0.6,0,0.8,0c0.3,0,0.6,0,0.8,0c0.2,0,0.4,0,0.5-0.1
	c0.1,0,0.2-0.1,0.3-0.2c0.1-0.1,0.1-0.1,0.1-0.2l2.8-14.3l0,0l2.1,14.3c0,0.1,0.1,0.3,0.4,0.4c0.4,0.1,0.8,0.2,1.3,0.2
	c0.4,0,0.9,0,1.3-0.1c0.3,0,0.5-0.2,0.6-0.5l8-14.2l0,0l-2.8,14.3c0,0.1,0,0.2,0,0.2c0.1,0.1,0.1,0.1,0.2,0.2
	c0.2,0.1,0.3,0.1,0.5,0.1c0.3,0,0.6,0,0.9,0c0.3,0,0.6,0,0.8,0c0.2,0,0.4,0,0.5-0.1c0.1,0,0.2-0.1,0.3-0.2c0.1-0.1,0.1-0.1,0.1-0.2
	l3.1-15.6c0-0.2,0-0.4,0-0.6c0-0.2-0.1-0.3-0.2-0.4S88,8.8,87.8,8.8c-0.2-0.1-0.4-0.1-0.6-0.1h-2.5c-0.3,0-0.6,0-0.9,0.1
	c-0.3,0.1-0.5,0.2-0.7,0.4c-0.2,0.2-0.4,0.4-0.6,0.6c-0.2,0.3-0.4,0.6-0.5,0.9l-6,10.4h-0.1l-1.7-10.4c0-0.3-0.1-0.6-0.2-0.9
	c-0.1-0.2-0.2-0.5-0.4-0.6c-0.2-0.2-0.4-0.3-0.7-0.3c-0.3-0.1-0.7-0.1-1.1-0.2h-2.2c-0.2,0-0.4,0-0.6,0.1c-0.2,0.1-0.3,0.2-0.5,0.3
	c-0.2,0.1-0.3,0.3-0.3,0.5C68.1,9.7,68,9.9,68,10.1l-3.1,15.6c0,0.1,0,0.2,0,0.2C64.9,26,65,26.1,65.1,26.1z"/>
<path class="st0" d="M88.1,25.6c-0.1,0.1-0.1,0.3,0,0.4c0.1,0.1,0.3,0.2,0.5,0.2c0.3,0,0.6,0,0.9,0c0.4,0,0.7,0,0.9,0
	c0.2,0,0.4,0,0.6-0.1c0.1,0,0.2-0.1,0.3-0.2c0.1-0.1,0.2-0.2,0.2-0.3l1.9-3.4h6.6l0.5,3.5c0,0.1,0,0.2,0.1,0.3
	c0.1,0.1,0.1,0.1,0.2,0.2c0.2,0,0.3,0.1,0.5,0.1h0.8c0.5,0,0.9,0,1.2,0c0.2,0,0.4-0.1,0.6-0.2c0.1-0.1,0.2-0.3,0.2-0.4
	c0-0.3,0-0.5-0.1-0.8l-2.2-15.5c0-0.1-0.1-0.3-0.1-0.4c-0.1-0.1-0.2-0.2-0.3-0.2c-0.2-0.1-0.5-0.1-0.7-0.1h-1.2h-1.1
	c-0.2,0-0.5,0-0.7,0.1c-0.1,0-0.3,0.1-0.4,0.2C97.1,9,97,9.2,97,9.3l-8.5,15.5C88.3,25.1,88.2,25.3,88.1,25.6z M98.8,12L98.8,12
	l1,7.4h-4.9L98.8,12z"/>
</svg>
