<?xml version="1.0" encoding="utf-8"?>
<!-- Generator: Adobe Illustrator 23.1.1, SVG Export Plug-In . SVG Version: 6.00 Build 0)  -->
<svg version="1.1" id="Layer_1" xmlns="http://www.w3.org/2000/svg" xmlns:xlink="http://www.w3.org/1999/xlink" x="0px" y="0px"
	 viewBox="0 0 23 24" style="enable-background:new 0 0 23 24;" xml:space="preserve">
<style type="text/css">
	.st0{fill:#426FB5;}
</style>
<path class="st0" d="M22.7,21.9L17,15.9c1.5-1.7,2.3-3.9,2.3-6.2c0-5.3-4.3-9.7-9.6-9.7C4.3,0,0,4.3,0,9.7c0,5.3,4.3,9.7,9.6,9.7
	c2,0,3.9-0.6,5.5-1.8l5.7,6c0.2,0.2,0.6,0.4,0.9,0.4c0.3,0,0.6-0.1,0.9-0.4C23.1,23.2,23.1,22.4,22.7,21.9z M9.6,2.5
	c3.9,0,7.1,3.2,7.1,7.2c0,3.9-3.2,7.2-7.1,7.2c-3.9,0-7.1-3.2-7.1-7.2C2.5,5.7,5.7,2.5,9.6,2.5z"/>
</svg>
